<svg width="86" height="94" viewBox="0 0 86 94" fill="none" xmlns="http://www.w3.org/2000/svg">
<path d="M42 39.2981L32 42.7981L53.5 78L68 78L42 39.2981Z" fill="url(#paint0_linear_202_19)"/>
<path d="M67 23L51.5 23L29.6118 37.2507L31.1389 47.5459L67 23Z" fill="url(#paint1_linear_202_19)"/>
<path d="M21 51.0002L31 47.4999L31 78L21.5 78L21 51.0002Z" fill="url(#paint2_linear_202_19)"/>
<path fill-rule="evenodd" clip-rule="evenodd" d="M21.2548 67.9491L21.2548 78L31 78.0001L21.2548 67.9491Z" fill="url(#paint3_linear_202_19)"/>
<path fill-rule="evenodd" clip-rule="evenodd" d="M21.2548 78L31 78.0001L21.2548 67.9491L21.2548 78Z" fill="url(#paint4_linear_202_19)"/>
<path d="M20.2974 14.6849L30 14.6848L31 47.5001L21 51.0001L20.2974 14.6849Z" fill="url(#paint5_linear_202_19)"/>
<path fill-rule="evenodd" clip-rule="evenodd" d="M68.0032 78.0187L57 61.4999L53.5 78L68.0032 78.0187Z" fill="url(#paint6_linear_202_19)"/>
<defs>
<linearGradient id="paint0_linear_202_19" x1="42.3516" y1="39.0387" x2="53.5861" y2="69.5807" gradientUnits="userSpaceOnUse">
<stop stop-color="#C31A62"/>
<stop offset="1" stop-color="#EF0820"/>
</linearGradient>
<linearGradient id="paint1_linear_202_19" x1="59.1241" y1="32.5811" x2="29.5694" y2="36.9648" gradientUnits="userSpaceOnUse">
<stop stop-color="#6275F6"/>
<stop offset="1" stop-color="#82E8FE"/>
</linearGradient>
<linearGradient id="paint2_linear_202_19" x1="21.2473" y1="50.7409" x2="31.0283" y2="77.3314" gradientUnits="userSpaceOnUse">
<stop stop-color="#8C31A2"/>
<stop offset="1" stop-color="#BF1B66"/>
</linearGradient>
<linearGradient id="paint3_linear_202_19" x1="21.9397" y1="67.6972" x2="26.1444" y2="79.1279" gradientUnits="userSpaceOnUse">
<stop stop-color="#6270F4"/>
<stop offset="1" stop-color="#84EBFD"/>
</linearGradient>
<linearGradient id="paint4_linear_202_19" x1="21.9397" y1="67.6972" x2="26.1444" y2="79.1279" gradientUnits="userSpaceOnUse">
<stop stop-color="#6270F4"/>
<stop offset="1" stop-color="#84EBFD"/>
</linearGradient>
<linearGradient id="paint5_linear_202_19" x1="19.5739" y1="14.9509" x2="31.484" y2="47.3297" gradientUnits="userSpaceOnUse">
<stop stop-color="#F8E64C"/>
<stop offset="1" stop-color="#EB3E49"/>
</linearGradient>
<linearGradient id="paint6_linear_202_19" x1="56.9263" y1="63.5324" x2="61.6062" y2="76.2551" gradientUnits="userSpaceOnUse">
<stop stop-color="#FF344C"/>
<stop offset="1" stop-color="#FF6F5B"/>
</linearGradient>
</defs>
</svg>
