<svg width="50" height="63" viewBox="0 0 50 63" fill="none" xmlns="http://www.w3.org/2000/svg">
<path d="M45.9098 31.2512L49.3361 21.4236L24.4263 24.3735L21 34.2012L45.9098 31.2512Z" fill="url(#paint0_linear_202_19)"/>
<path d="M21.8016 34.1675H11.3938L23.1507 62.4997H33.5585L21.8016 34.1675Z" fill="url(#paint1_linear_202_19)"/>
<path d="M11.3937 34.1675H21.8015L11.3937 62.4997H0.985947L11.3937 34.1675Z" fill="url(#paint2_linear_202_19)"/>
<path fill-rule="evenodd" clip-rule="evenodd" d="M5.46012 50.3201L0.985992 62.4996H11.3938L5.46012 50.3201Z" fill="url(#paint3_linear_202_19)"/>
<path fill-rule="evenodd" clip-rule="evenodd" d="M0.985992 62.4996H11.3938L5.46012 50.3201L0.985992 62.4996Z" fill="url(#paint4_linear_202_19)"/>
<path d="M22.9497 0H33.3574L21.4078 34.4998H11L22.9497 0Z" fill="url(#paint5_linear_202_19)"/>
<path fill-rule="evenodd" clip-rule="evenodd" d="M27.7807 48.5764L23.0457 62.2468L23.1507 62.5H33.5585L33.4534 62.2468L27.7807 48.5764Z" fill="url(#paint6_linear_202_19)"/>
<path fill-rule="evenodd" clip-rule="evenodd" d="M33.3657 62.5L33.4534 62.2468L27.7807 48.5764L23.0457 62.2468L22.958 62.5H33.3657Z" fill="url(#paint7_linear_202_19)"/>
<defs>
<linearGradient id="paint0_linear_202_19" x1="45.8146" y1="31.5242" x2="24.5215" y2="24.1005" gradientUnits="userSpaceOnUse">
<stop stop-color="#6275F6"/>
<stop offset="1" stop-color="#82E8FE"/>
</linearGradient>
<linearGradient id="paint1_linear_202_19" x1="22.4761" y1="34.1675" x2="22.4761" y2="62.4997" gradientUnits="userSpaceOnUse">
<stop stop-color="#C31A62"/>
<stop offset="1" stop-color="#EF0820"/>
</linearGradient>
<linearGradient id="paint2_linear_202_19" x1="11.3937" y1="34.1675" x2="11.3937" y2="62.4997" gradientUnits="userSpaceOnUse">
<stop stop-color="#8C31A2"/>
<stop offset="1" stop-color="#BF1B66"/>
</linearGradient>
<linearGradient id="paint3_linear_202_19" x1="6.18987" y1="50.3201" x2="6.18987" y2="62.4996" gradientUnits="userSpaceOnUse">
<stop stop-color="#6270F4"/>
<stop offset="1" stop-color="#84EBFD"/>
</linearGradient>
<linearGradient id="paint4_linear_202_19" x1="6.18987" y1="50.3201" x2="6.18987" y2="62.4996" gradientUnits="userSpaceOnUse">
<stop stop-color="#6270F4"/>
<stop offset="1" stop-color="#84EBFD"/>
</linearGradient>
<linearGradient id="paint5_linear_202_19" x1="22.1787" y1="0" x2="22.1787" y2="34.4998" gradientUnits="userSpaceOnUse">
<stop stop-color="#F8E64C"/>
<stop offset="1" stop-color="#EB3E49"/>
</linearGradient>
<linearGradient id="paint6_linear_202_19" x1="28.2582" y1="48.5764" x2="28.2582" y2="62.5" gradientUnits="userSpaceOnUse">
<stop stop-color="#FF344C"/>
<stop offset="1" stop-color="#FF6F5B"/>
</linearGradient>
<linearGradient id="paint7_linear_202_19" x1="28.2582" y1="48.5764" x2="28.2582" y2="62.5" gradientUnits="userSpaceOnUse">
<stop stop-color="#FF344C"/>
<stop offset="1" stop-color="#FF6F5B"/>
</linearGradient>
</defs>
</svg>
